<?xml version="1.0" encoding="utf-8"?>
<!-- Generator: Adobe Illustrator 27.9.0, SVG Export Plug-In . SVG Version: 6.00 Build 0)  -->
<svg version="1.1" id="Layer_1" xmlns="http://www.w3.org/2000/svg" xmlns:xlink="http://www.w3.org/1999/xlink" x="0px" y="0px"
	 viewBox="0 0 144 144" style="enable-background:new 0 0 144 144;" xml:space="preserve">
<style type="text/css">
	.st0{fill-rule:evenodd;clip-rule:evenodd;fill:#014692;}
	.st1{fill-rule:evenodd;clip-rule:evenodd;fill:#1BA2B4;}
</style>
<g>
	<g id="Layer_4">
		<path class="st0" d="M48.2,57.8c5.4-8.6,13.2-17,23.8-24.2c10.7,7.2,18.5,15.5,23.8,24.2c-3.3,1.2-6.5,2.8-9.7,4.7l0,0
			C82.7,56.8,78,51.2,72,46c-6,5.2-10.7,10.8-14.2,16.4l0,0C54.7,60.6,51.5,59,48.2,57.8L48.2,57.8z M72,113.5c-2.1,0-3.4,2-4.7,2.2
			c-2.4,0.4-2.6-3.4-6.3-0.7l-9.4,6.7c5.5,4.8,12.4,7.7,20.4,7.5c8,0.2,14.9-2.6,20.4-7.5L83,115c-3.8-2.7-3.9,1.1-6.3,0.7
			C75.4,115.4,74.1,113.5,72,113.5z M54.2,117l5.8-3.9l0,0L54.2,117z M72,77.9L72,77.9C53.5,57,35.1,53.8,7.4,58.7h0
			c3.3,25.5,9.5,41.1,30.4,52.4l0.8,0.4c4.5-3,8.9-6,13.4-9.1c-2.7-7-3.2-15.8-0.7-25.1l0,0c-3.2-2-6.5-3.7-10-5
			c-3.1,9.7-3.5,19.2-1.7,27.7l0,0l0,0c-10.5-7-17-16.6-20-31.9l0,0c20-2.2,33.1,4.6,45.3,18.6c0,0,0,0,0,0
			c-3.6,5-7.3,10.7-11.1,17.2l-0.2,0.3c-8.3,5.6-16.5,11.2-24.8,16.7c6.6,7.3,9.3,6.9,15.7,2.7c5.3-3.6,10.6-7.3,15.9-10.8
			c3.7-5.8,7.5-11.7,11.6-17.3l0,0l0,0c4.1,5.6,7.8,11.5,11.6,17.3c5.3,3.5,10.6,7.2,15.9,10.8c6.3,4.2,9.1,4.6,15.7-2.7
			c-8.3-5.6-16.5-11.2-24.8-16.7l-0.2-0.3c-3.8-6.5-7.5-12.2-11.1-17.2c0,0,0,0,0,0c12.3-14,25.4-20.8,45.3-18.6l0,0
			c-3,15.3-9.5,24.9-20,31.9l0,0l0,0c1.7-8.5,1.3-18-1.7-27.7c-3.5,1.3-6.8,2.9-10,5l0,0c2.5,9.3,2.1,18.2-0.7,25.1
			c4.5,3.1,8.9,6,13.4,9.1l0.8-0.4c20.9-11.3,27.1-26.9,30.4-52.4h0C108.9,53.8,90.5,57,72,77.9L72,77.9L72,77.9z M136.6,58.7
			L136.6,58.7z M89.8,117l-5.8-3.9l0,0L89.8,117z"/>
	</g>
	<g id="Layer_3">
		<path class="st1" d="M72,11.6C53.4,19.3,36.8,35.1,26.8,54c4.2,0,8.2,0.3,12,1C49.4,37.8,60.9,28.3,72,24
			c11.1,4.3,22.6,13.7,33.2,31c3.8-0.7,7.8-1,12-1C107.2,35.1,90.6,19.3,72,11.6L72,11.6z"/>
	</g>
	<g id="Layer_2_00000065793431523168878710000014318954501221114300_">
		<path class="st1" d="M77.7,57.5h-3.4L72,55.2l0,0l0,0l-2.4,2.4h-3.4v3.4l-2.4,2.4l2.4,2.4V69h3.4l2.4,2.4l2.4-2.4h3.4v-3.4
			l2.4-2.4l-2.4-2.4V57.5z M72,59.4c2.2,0,3.9,1.8,3.9,4c0,2.2-1.7,3.9-3.9,4c-2.2,0-3.9-1.8-3.9-4C68.1,61.2,69.8,59.4,72,59.4z"/>
	</g>
</g>
</svg>
