<svg xmlns="http://www.w3.org/2000/svg" viewBox="0 0 369.08 335.66"><defs><style>.cls-1{fill:#004188;}.cls-1,.cls-2{fill-rule:evenodd;}.cls-2{fill:#00a0b3;}</style></defs><g id="Layer_2" data-name="Layer 2"><g id="Layer_1-2" data-name="Layer 1"><path class="cls-1" d="M116.44,131.83c15.34-24.72,37.65-48.47,68.1-69,30.45,20.57,52.76,44.32,68.1,69A173,173,0,0,0,225,145.25h0a199.71,199.71,0,0,0-40.48-47,199.94,199.94,0,0,0-40.48,47h0a172.13,172.13,0,0,0-27.62-13.42ZM184.54,291c-6,.08-9.75,5.6-13.48,6.14-6.82,1.22-7.31-9.63-18.07-1.95l-26.73,19.08a83.75,83.75,0,0,0,58.28,21.39,83.75,83.75,0,0,0,58.29-21.39l-26.74-19.08c-10.76-7.68-11.24,3.17-18.06,1.95-3.73-.54-7.5-6.06-13.49-6.14Zm-50.92,10,16.45-11.2h0L133.62,301Zm50.92-111.79,0,0C131.71,129.69,79.06,120.53.12,134.43l-.12,0c9.51,72.8,27.25,117.32,86.91,149.63l2.38,1.13c12.8-8.68,25.39-17,38.32-25.88-7.77-19.86-9.09-45.16-1.92-71.85h0a141,141,0,0,0-28.46-14.24c-8.8,27.6-10,54.92-5,79.06l0,0,0,0c-29.95-20-48.56-47.42-57.15-91h0c57.06-6.32,94.42,13.09,129.48,53l-.07.08a579,579,0,0,0-31.83,49.12l-.51.88L61.21,312.23C79.92,333,87.85,331.86,106,319.8c15.12-10.34,30.22-20.75,45.45-30.89,10.7-16.68,21.39-33.43,33.1-49.46l0,.05,0-.05c11.71,16,22.39,32.78,33.1,49.46,15.22,10.14,30.33,20.55,45.44,30.89,18.12,12.06,26.05,13.2,44.75-7.57L237,264.37l-.5-.88a581.42,581.42,0,0,0-31.84-49.12l-.06-.08c35-39.94,72.41-59.35,129.47-53h0c-8.58,43.61-27.2,71-57.15,91l-.05,0,0,0c5-24.14,3.82-51.46-5-79.06a140.94,140.94,0,0,0-28.45,14.24h0c7.16,26.69,5.84,52-1.93,71.85,12.93,8.85,25.52,17.2,38.32,25.88l2.38-1.13c59.66-32.31,77.4-76.83,86.91-149.63l-.12,0c-78.93-13.9-131.59-4.74-184.37,54.86l-.05,0ZM235.47,301,219,289.83h0Z"/><path class="cls-2" d="M184.54,0c-53,21.87-100.48,67.08-129.12,121.15a182.5,182.5,0,0,1,34.28,2.92c30.27-49.36,63-76.44,94.84-88.62,31.81,12.18,64.58,39.26,94.84,88.62a182.5,182.5,0,0,1,34.28-2.92C285,67.08,237.57,21.87,184.54,0Z"/><path class="cls-2" d="M200.91,131.08h-9.58l-6.78-6.79v0l-6.77,6.79h-9.59v9.59l-6.78,6.79,6.78,6.77v9.58h9.6l6.77,6.77,6.78-6.77h9.59v-9.58l6.78-6.77-6.78-6.79Zm-16.37,28a11.32,11.32,0,1,1,11.1-11.32A11.32,11.32,0,0,1,184.54,159.13Z"/></g></g></svg>